<svg width="24" height="23" viewBox="0 0 24 23" fill="none" xmlns="http://www.w3.org/2000/svg">
<path d="M12.1117 6.05933C14.7038 6.35317 16.569 8.69533 16.2752 11.2874C15.9813 13.8794 13.6392 15.7446 11.0471 15.4508C8.45508 15.157 6.58987 12.8148 6.88371 10.2228C7.17754 7.63071 9.5197 5.7655 12.1117 6.05933ZM11.1654 14.4073C13.183 14.636 15.003 13.1867 15.2317 11.1691C15.4604 9.15096 14.0111 7.33154 11.9935 7.10283C9.97533 6.87405 8.15598 8.32292 7.9272 10.341C7.69849 12.3586 9.1473 14.1785 11.1654 14.4073ZM15.5882 14.9462L16.897 16.589L16.075 17.2436L14.7669 15.6003L15.5882 14.9462Z" fill="#3D3D3D"/>
</svg>
